<?xml version="1.0" encoding="UTF-8"?>
<svg width="121px" height="218px" viewBox="0 0 121 218" version="1.1" xmlns="http://www.w3.org/2000/svg" xmlns:xlink="http://www.w3.org/1999/xlink">
    <!-- Generator: Sketch 52.5 (67469) - http://www.bohemiancoding.com/sketch -->
    <title>Artboard</title>
    <desc>Created with Sketch.</desc>
    <defs>
        <radialGradient cx="69.1753185%" cy="49.9815074%" fx="69.1753185%" fy="49.9815074%" r="37.2505257%" gradientTransform="translate(0.691753,0.499815),scale(1.000000,0.803475),translate(-0.691753,-0.499815)" id="radialGradient-1">
            <stop stop-color="#FFFFFF" offset="0%"></stop>
            <stop stop-color="#FFFFFF" stop-opacity="0.39" offset="100%"></stop>
        </radialGradient>
        <linearGradient x1="-1.5901224e-12%" y1="50.0509684%" x2="100%" y2="50.0509684%" id="linearGradient-2">
            <stop stop-color="#000000" offset="1%"></stop>
            <stop stop-color="#000000" stop-opacity="0.69" offset="13%"></stop>
            <stop stop-color="#000000" stop-opacity="0" offset="100%"></stop>
        </linearGradient>
        <linearGradient x1="0.0217533174%" y1="50.0701262%" x2="100.021753%" y2="50.0701262%" id="linearGradient-3">
            <stop stop-color="#000000" offset="1%"></stop>
            <stop stop-color="#000000" stop-opacity="0.69" offset="13%"></stop>
            <stop stop-color="#000000" stop-opacity="0" offset="100%"></stop>
        </linearGradient>
    </defs>
    <g id="Artboard" stroke="none" stroke-width="1" fill="none" fill-rule="evenodd">
        <g id="idea_applications" transform="translate(2.000000, -2.000000)">
            <path d="M112.282384,177.979426 C110.462234,198.203325 95.6502551,217.861874 79.2473979,217.861874 C5.58724824,217.861874 6.63159691,165.624463 4.14380918,151.430963 C2.68172104,143.096265 1.53542404,134.69109 0.704918196,126.215438 C-0.540840577,113.547923 -0.787008478,99.5106988 5.58724824,89.4447128 C10.3502241,81.8929251 36.3839909,41.6243847 76.987129,41.6243847 C117.590267,41.6243847 107.606788,66.365629 110,83.5085513 C114.753667,117.559759 113.252137,167.127466 112.282384,177.979426 Z" id="Path" fill="#D0D3FF"></path>
            <rect id="Rectangle" fill="#72CEC1" transform="translate(61.555000, 86.810000) rotate(180.000000) translate(-61.555000, -86.810000) " x="41" y="77" width="41.11" height="19.62" rx="4.09"></rect>
            <rect id="Rectangle" fill="#72CEC1" transform="translate(60.985000, 86.565000) rotate(-180.000000) translate(-60.985000, -86.565000) " x="38" y="83" width="45.97" height="7.13" rx="3.44"></rect>
            <path d="M23.0000699,150.09 C22.9885602,144.242888 24.3990836,138.480676 27.1100699,133.3 L42.0600699,96 L78.6300699,96 L92.5300699,135.35 C98.5429703,148.882062 95.7412413,164.709334 85.4484265,175.354973 C75.1556117,186.000613 59.4317197,189.333996 45.7047563,183.780426 C31.9777928,178.226855 22.9950785,164.897824 23.0000699,150.09 Z" id="Path" fill="#4749A0"></path>
            <path d="M23.0000699,150.09 C22.9885602,144.242888 24.3990836,138.480676 27.1100699,133.3 L42.0600699,96 L78.6300699,96 L92.5300699,135.35 C98.5429703,148.882062 95.7412413,164.709334 85.4484265,175.354973 C75.1556117,186.000613 59.4317197,189.333996 45.7047563,183.780426 C31.9777928,178.226855 22.9950785,164.897824 23.0000699,150.09 Z" id="Path" fill="url(#radialGradient-1)" opacity="0.69"></path>
            <path d="M65.2921486,95 C70.6425878,106.14426 73.4502328,118.338046 73.5121486,130.7 C73.5121486,133.47 73.1121486,136.7 70.6921486,138.08 C67.6921486,139.73 64.0521486,137.15 62.4321486,134.17 C60.3115145,130.217701 59.9910058,125.544829 61.5521486,121.34 C63.5521486,123.81 64.0821486,127.06 64.4121486,130.18 C64.7991137,132.474744 64.6589086,134.827454 64.0021486,137.06 C63.2121486,139.24 61.2621486,141.16 58.9421486,141.24 C55.3821486,141.36 53.0721486,137.37 52.6721486,133.82 C52.225665,129.778782 53.148247,125.704631 55.2921486,122.25 C56.8248671,126.886264 55.7563715,131.988331 52.4921486,135.62 C51.4358795,136.866219 50.016272,137.750851 48.4321486,138.15 C46.8133134,138.524399 45.1236395,137.932624 44.0921486,136.63 C43.6036995,135.839979 43.309013,134.945639 43.2321486,134.02 C42.2321486,127.33 44.6121486,120.6 47.5121486,114.49 C50.4121486,108.38 53.9321486,102.49 55.6421486,95.94" id="Path" stroke="#FFFFFF" stroke-width="1.39"></path>
            <rect id="Rectangle" fill="url(#linearGradient-2)" transform="translate(61.555000, 86.810000) rotate(180.000000) translate(-61.555000, -86.810000) " x="41" y="77" width="41.11" height="19.62" rx="4.09"></rect>
            <rect id="Rectangle" fill="url(#linearGradient-3)" transform="translate(60.985000, 86.565000) rotate(-180.000000) translate(-60.985000, -86.565000) " x="38" y="83" width="45.97" height="7.13" rx="3.44"></rect>
            <polygon id="Path" fill="#4749A0" points="60.68 0.0394901813 60.68 76.8232921 58.42 76.8232921 58.42 1.13982851"></polygon>
        </g>
    </g>
</svg>