<?xml version="1.0" encoding="UTF-8"?>
<svg width="128px" height="108px" viewBox="0 0 128 108" version="1.1" xmlns="http://www.w3.org/2000/svg" xmlns:xlink="http://www.w3.org/1999/xlink">
    <!-- Generator: Sketch 52.5 (67469) - http://www.bohemiancoding.com/sketch -->
    <title>Artboard</title>
    <desc>Created with Sketch.</desc>
    <defs>
        <path d="M127.668786,77.2326319 C127.872442,89.9803252 117.664194,102.102281 104.935705,104.239837 C98.9787726,105.244672 92.9014979,104.276377 86.8519944,104.011466 C73.6930515,103.445105 60.5641942,106.231236 47.428394,106.523552 C44.769297,106.582928 42.1055715,106.523552 39.4395317,106.338571 C30.6738925,105.683731 22.1138746,103.392967 14.2139817,99.5879113 C10.8444036,97.9664742 7.55582502,96.0298844 5.10269814,93.243753 C-0.159953312,87.2741237 -0.666778583,78.5366328 0.550527776,70.7263298 C1.76783414,62.9160269 4.44544527,55.2815699 4.58198724,47.375351 C4.67918661,41.8556135 3.53130837,36.3952526 3.237396,30.8823662 C2.94348362,25.3694799 3.62156492,19.5231712 6.91014351,15.0607935 C10.1987221,10.5984157 15.6719722,8.15255767 21.1544793,7.0883468 C26.6369865,6.02413593 32.2629784,6.16344251 37.8473135,5.82088536 C49.3978383,5.12206878 60.7076789,2.34278846 72.1910899,0.956573874 C89.3166927,-1.11475501 116.856513,-1.7838833 118.751901,20.3338898 C118.897385,22.1632296 118.937564,23.9992419 118.872243,25.8330739 C118.705616,31.9420097 117.75445,38.0737826 118.541302,44.1370441 C120.013178,55.5304948 127.483644,65.7524001 127.668786,77.2326319 Z" id="path-1"></path>
        <linearGradient x1="99.9517156%" y1="49.9718596%" x2="0.540479362%" y2="49.9718596%" id="linearGradient-3">
            <stop stop-color="#E4C5D5" offset="0%"></stop>
            <stop stop-color="#E9D3CF" offset="42%"></stop>
            <stop stop-color="#EFE8CA" offset="100%"></stop>
        </linearGradient>
        <linearGradient x1="-0.165973238%" y1="49.919276%" x2="99.5265307%" y2="49.919276%" id="linearGradient-4">
            <stop stop-color="#E4C5D5" offset="0%"></stop>
            <stop stop-color="#E9D3CF" offset="42%"></stop>
            <stop stop-color="#EFE8CA" offset="100%"></stop>
        </linearGradient>
        <linearGradient x1="-3071.69774%" y1="50.0380231%" x2="-2971.71318%" y2="50.0380231%" id="linearGradient-5">
            <stop stop-color="#E4C5D5" offset="0%"></stop>
            <stop stop-color="#E9D3CF" offset="42%"></stop>
            <stop stop-color="#EFE8CA" offset="100%"></stop>
        </linearGradient>
        <linearGradient x1="66.3915979%" y1="117.854616%" x2="1.12528132%" y2="-197.476197%" id="linearGradient-6">
            <stop stop-color="#010101" stop-opacity="0" offset="12%"></stop>
            <stop stop-color="#010101" offset="95%"></stop>
        </linearGradient>
        <linearGradient x1="-1928.53563%" y1="50.0159015%" x2="-1828.55751%" y2="50.0159015%" id="linearGradient-7">
            <stop stop-color="#E4C5D5" offset="0%"></stop>
            <stop stop-color="#E9D3CF" offset="42%"></stop>
            <stop stop-color="#EFE8CA" offset="100%"></stop>
        </linearGradient>
        <linearGradient x1="-23348.3013%" y1="56.9086351%" x2="-23730.2603%" y2="13.8172701%" id="linearGradient-8">
            <stop stop-color="#010101" stop-opacity="0" offset="12%"></stop>
            <stop stop-color="#010101" offset="95%"></stop>
        </linearGradient>
        <linearGradient x1="111.643557%" y1="56.7896375%" x2="-270.326529%" y2="14.0464141%" id="linearGradient-9">
            <stop stop-color="#010101" stop-opacity="0" offset="12%"></stop>
            <stop stop-color="#010101" offset="95%"></stop>
        </linearGradient>
    </defs>
    <g id="Artboard" stroke="none" stroke-width="1" fill="none" fill-rule="evenodd">
        <g id="personal_data_1">
            <mask id="mask-2" fill="white">
                <use xlink:href="#path-1"></use>
            </mask>
            <use id="Path" fill="#72CEC1" opacity="0.24" xlink:href="#path-1"></use>
            <path d="M32.4381182,89.3198546 C26.4008141,93.7472109 20.9867157,101.706066 22.0513585,109.132599 C51.6146733,107.678452 79.6719078,109.379284 105.366155,109.002764 C104.846817,102.25137 102.133276,93.6693102 97.4332669,88.8005166 C94.9850226,86.5389011 92.1652904,84.716177 89.0978922,83.4123851 C82.8398695,80.3353075 76.4909627,77.2712134 69.6227179,75.8430339 C55.9121951,72.9477247 43.2273648,81.4259173 32.4381182,89.3198546 Z" id="Path" fill="#FFFFFF" mask="url(#mask-2)"></path>
            <path d="M83.9911264,44.3744818 C84.2211312,46.5687457 83.4922374,48.7554272 81.9916752,50.3728355 C81.6460842,50.7844003 81.198325,51.0978318 80.6933302,51.2816769 C78.0966403,52.1256012 77.9797892,46.8802875 78.7198459,45.3871908 C79.6027204,43.6863589 83.6016229,40.9987849 83.9911264,44.3744818 Z" id="Path" fill="url(#linearGradient-3)" mask="url(#mask-2)"></path>
            <path d="M38.2125609,41.4969972 C37.9808142,43.6891323 38.7046566,45.8748525 40.1990287,47.4953509 C40.5521975,47.8985549 40.997641,48.2103654 41.4973737,48.4041923 C44.0940636,49.2481166 44.2109147,43.9898195 43.4578746,42.5097062 C42.6009669,40.8478247 38.6020644,38.1213003 38.2125609,41.4969972 Z" id="Path" fill="url(#linearGradient-4)" mask="url(#mask-2)"></path>
            <path d="M70.4767834,58.922215 C70.4767834,58.922215 70.6325848,76.0863354 74.5406032,79.6957344 C78.4486215,83.3051334 58.8825629,100.170634 50.5991221,81.3446325 C50.5991221,81.3446325 55.4159819,73.216993 53.7670838,59.5194537 C52.1181857,45.8219144 70.4767834,58.922215 70.4767834,58.922215 Z" id="Path" fill="url(#linearGradient-5)" mask="url(#mask-2)"></path>
            <path d="M70.7743025,63.4190277 L70.7743025,67.184228 C70.7743025,67.184228 60.8419635,81.4660226 56.7781438,76.6751297 C52.7143241,71.8842368 53.9088015,70.8066105 53.9088015,70.8066105 L53.4673642,59.9654301 L70.7743025,63.4190277 Z" id="Path" fill="url(#linearGradient-6)" mask="url(#mask-2)"></path>
            <path d="M80.4928371,34.4005822 C80.4928371,34.4005822 83.349196,60.6011835 69.3400539,65.7945633 C55.3309118,70.9879432 46.9825537,63.5354431 43.1394526,50.8895632 C39.2963515,38.2436833 45.1778542,12.7182214 60.0179371,15.1980603 C74.85802,17.6778991 80.4928371,34.4005822 80.4928371,34.4005822 Z" id="Path" fill="url(#linearGradient-7)" mask="url(#mask-2)"></path>
            <path d="M82.7037121,43.0137782 C83.3427618,42.1070476 83.7566685,41.0611544 83.9111729,39.9626676 C85.765662,29.9552996 82.1551009,19.7171333 74.4332547,13.0869269 C72.8925922,11.7292213 71.1082561,10.6762427 69.1749577,9.98388247 C67.2476641,9.41325135 65.2335573,9.19337069 63.2285377,9.33470999 C56.9036842,9.53039036 50.8036297,11.7258645 45.8047484,15.6057161 C40.8158681,19.574022 37.7174224,25.4507093 37.2616385,31.8090612 C37.0877434,33.6722362 37.3915988,35.54899 38.1445131,37.2621101 C38.9171917,38.9916117 40.4629596,40.2532665 42.3122004,40.6637739 C45.5450794,41.2220622 46.427954,38.2358688 49.0506108,36.249401 C52.9456457,33.2502241 54.2439906,28.7969009 63.2025708,29.549941 C77.7700013,30.7703853 78.8086773,47.8046711 82.7037121,43.0137782 Z" id="Path" fill="#606161" mask="url(#mask-2)"></path>
            <path d="M40.2740816,43.9291788 C40.1032756,43.7724554 39.9663096,43.5824703 39.8715946,43.3708905 C39.8115692,43.1240405 39.7767681,42.8717327 39.767727,42.6178504 C39.7333156,42.3690434 39.6140779,42.1397402 39.4301574,41.9686779 C39.2300632,41.805978 38.9606262,41.7569894 38.7160676,41.8388434 C38.5099211,41.9353309 38.3542575,42.1145798 38.2876138,42.3322145 C38.231032,42.5485211 38.2005207,42.7708181 38.1967296,42.9943704 C38.1090448,43.8564908 38.2384826,44.7268489 38.5732497,45.5261431 C38.8909909,46.0753864 39.2992197,46.5670168 39.7807105,46.9802895 C39.9484919,47.1863879 40.1914293,47.3172004 40.4558499,47.3438261 C40.6244506,47.3327675 40.7864869,47.2742544 40.9232541,47.1750412 C40.9869941,47.1424679 41.0442057,47.0984589 41.0920389,47.0452067 C41.1043198,46.9808703 41.1043198,46.9147914 41.0920389,46.850455 C41.2025772,46.258331 41.2025772,45.6508629 41.0920389,45.0587389 C40.9392357,44.6085024 40.6541649,44.2148332 40.2740816,43.9291788 Z" id="Path" fill="url(#linearGradient-8)" mask="url(#mask-2)"></path>
            <path d="M81.1383973,45.8431363 C81.3092033,45.6864129 81.4461693,45.4964278 81.5408843,45.284848 C81.6017772,45.0425681 81.6365976,44.7944732 81.6447519,44.5447914 C81.6758201,44.2920201 81.8009846,44.060234 81.995305,43.8956189 C82.1839387,43.7207029 82.4543858,43.6656118 82.6964113,43.7528009 C82.8996867,43.8530509 83.0540937,44.0308528 83.1248651,44.246172 C83.1813859,44.466904 83.2118879,44.6934907 83.2157493,44.9213114 C83.3034341,45.7834318 83.1739963,46.6537899 82.8392292,47.4530841 C82.5211076,47.9982771 82.1128325,48.4855733 81.6317684,48.894247 C81.4610317,49.0989307 81.220496,49.2330756 80.956629,49.270767 C80.7868635,49.2552136 80.6248951,49.1922258 80.4892248,49.0889987 C80.420429,49.0650642 80.3612203,49.0195191 80.32044,48.9591642 C80.3071431,48.8949279 80.3071431,48.8286488 80.32044,48.7644125 C80.210018,48.1766428 80.210018,47.5734496 80.32044,46.9856799 C80.4731066,46.5318116 80.7579503,46.1339346 81.1383973,45.8431363 Z" id="Path" fill="url(#linearGradient-9)" mask="url(#mask-2)"></path>
        </g>
    </g>
</svg>